<?xml version="1.0" standalone="no"?> <!DOCTYPE svg PUBLIC "-//W3C//DTD SVG 20010904//EN" "http://www.w3.org/TR/2001/REC-SVG-20010904/DTD/svg10.dtd"> <svg version="1.0" xmlns="http://www.w3.org/2000/svg" width="597.000000pt" height="418.000000pt" viewBox="0 0 597.000000 418.000000" preserveAspectRatio="xMidYMid meet"> <g transform="translate(0.000000,418.000000) scale(0.100000,-0.100000)" fill="#ffffff" stroke="none"> <path d="M2807 3633 c-11 -10 -8 -71 3 -78 6 -4 10 12 10 39 0 47 -2 51 -13 39z"/> <path d="M2480 3558 c0 -22 21 -68 32 -68 12 0 9 11 -12 50 -11 21 -19 28 -20 18z"/> <path d="M3117 3535 c-19 -40 -21 -55 -9 -55 10 0 38 78 30 85 -2 3 -12 -11 -21 -30z"/> <path d="M2807 3523 c-11 -10 -8 -51 3 -58 6 -4 10 8 10 29 0 37 -2 41 -13 29z"/> <path d="M2946 3491 c-9 -14 -20 -111 -13 -111 7 0 30 110 24 116 -3 3 -8 1 -11 -5z"/> <path d="M2664 3468 c3 -13 17 -81 32 -153 14 -71 31 -137 36 -145 12 -20 3 42 -28 194 -13 65 -24 120 -24 122 0 2 -5 4 -10 4 -6 0 -8 -10 -6 -22z"/> <path d="M2173 3445 c0 -8 4 -12 9 -9 5 3 6 10 3 15 -9 13 -12 11 -12 -6z"/> <path d="M2350 3439 c7 -11 14 -18 17 -15 8 8 -5 36 -17 36 -7 0 -7 -6 0 -21z"/> <path d="M3253 3445 c-9 -25 4 -29 17 -6 7 15 7 21 0 21 -6 0 -13 -7 -17 -15z"/> <path d="M2530 3441 c0 -12 42 -115 101 -246 12 -27 24 -45 26 -38 3 7 -21 72 -53 145 -57 133 -74 164 -74 139z"/> <path d="M3072 3430 c-89 -209 -111 -264 -107 -268 7 -7 6 -10 69 131 31 71 55 136 53 145 -3 13 -6 11 -15 -8z"/> <path d="M2179 3392 c12 -23 146 -142 159 -142 6 0 -27 36 -73 80 -84 81 -104 95 -86 62z"/> <path d="M3355 3329 c-44 -43 -75 -79 -70 -79 18 0 169 146 159 153 -6 3 -46 -30 -89 -74z"/> <path d="M2416 3348 c76 -109 107 -149 111 -144 5 5 -84 142 -115 179 -33 38 -30 14 4 -35z"/> <path d="M3198 3368 c-90 -123 -120 -173 -91 -155 17 10 127 177 121 183 -3 3 -17 -10 -30 -28z"/> <path d="M2915 3339 c-7 -20 -35 -158 -35 -172 0 -7 4 -6 9 3 13 23 44 170 37 177 -3 3 -8 0 -11 -8z"/> <path d="M2807 3313 c-11 -10 -8 -186 3 -203 7 -10 10 21 10 98 0 61 -1 112 -3 112 -2 0 -7 -3 -10 -7z"/> <path d="M2100 3260 c0 -12 129 -104 136 -97 4 3 3 10 0 15 -10 16 -136 92 -136 82z"/> <path d="M3443 3218 c-34 -23 -59 -46 -57 -50 5 -8 119 66 130 84 11 18 -15 6 -73 -34z"/> <path d="M1930 3172 c0 -7 63 -42 75 -42 17 0 -1 19 -30 33 -41 19 -45 20 -45 9z"/> <path d="M3643 3163 c-27 -14 -44 -33 -29 -33 15 0 76 32 76 40 0 13 -9 12 -47 -7z"/> <path d="M2330 3149 c1 -8 7 -25 15 -39 20 -34 19 -40 -7 -40 -48 0 -68 -13 -89 -57 -12 -24 -31 -48 -43 -53 -35 -13 -48 -34 -33 -54 13 -18 15 -18 337 -62 165 -22 199 -30 226 -50 43 -33 112 -33 152 0 22 19 48 27 110 35 45 6 117 16 160 21 42 6 121 17 175 24 101 13 133 29 121 59 -3 9 -15 19 -27 23 -24 7 -56 43 -57 62 0 25 -40 52 -75 52 l-35 0 15 36 c8 20 15 41 15 47 0 16 -101 0 -188 -31 -104 -37 -182 -85 -243 -149 l-49 -52 -49 52 c-27 29 -75 67 -106 86 -109 66 -326 126 -325 90z m173 -46 c74 -23 163 -69 217 -113 34 -27 22 -25 -39 5 -71 36 -134 53 -219 61 -72 7 -73 7 -87 42 -8 19 -15 36 -15 38 0 6 64 -8 143 -33z m757 33 c0 -2 -7 -20 -15 -40 -13 -32 -19 -36 -51 -36 -61 0 -187 -30 -246 -59 -32 -16 -58 -25 -58 -21 0 12 87 66 153 94 69 31 217 73 217 62z m-705 -116 c70 -17 184 -73 223 -109 30 -28 35 -29 48 -16 94 94 277 150 472 146 28 -1 42 -5 42 -15 0 -7 9 -25 20 -39 11 -14 20 -27 20 -30 0 -2 -62 -12 -137 -22 -76 -9 -169 -21 -208 -26 -38 -6 -89 -13 -112 -16 -26 -3 -50 -15 -64 -29 -28 -30 -58 -30 -93 -3 -35 27 -67 35 -261 59 -88 11 -183 22 -210 26 l-51 6 21 43 c17 37 25 44 55 47 48 4 175 -8 235 -22z m-85 -120 c231 -29 257 -35 281 -56 34 -32 82 -32 121 1 16 14 35 25 42 25 8 0 78 9 157 19 79 11 169 22 199 25 30 4 79 10 108 15 40 6 52 5 52 -5 0 -7 -17 -15 -42 -19 -460 -62 -481 -66 -512 -92 -25 -21 -37 -24 -74 -20 -25 3 -53 14 -65 26 -23 21 -114 37 -426 76 -62 8 -116 16 -118 19 -7 7 7 27 15 22 4 -2 122 -18 262 -36z"/> <path d="M2355 2991 c-39 -3 -20 -7 80 -17 111 -10 181 -26 268 -59 9 -4 17 -3 17 3 0 15 -157 61 -240 69 -41 5 -97 6 -125 4z"/> <path d="M3023 2965 c-51 -13 -103 -31 -115 -39 -28 -20 -11 -20 35 -1 53 22 120 35 247 50 l115 12 -95 1 c-70 1 -120 -5 -187 -23z"/> <path d="M2046 3122 c-2 -4 22 -20 55 -34 75 -33 86 -21 13 15 -61 30 -61 30 -68 19z"/> <path d="M3495 3098 c-47 -24 -50 -26 -43 -33 3 -3 34 8 69 24 47 21 57 30 39 30 -14 0 -43 -9 -65 -21z"/> <path d="M1996 3001 c5 -6 34 -12 64 -15 l55 -6 -40 14 c-47 17 -94 21 -79 7z"/> <path d="M3545 2995 l-30 -13 30 -1 c17 0 44 6 60 14 l30 13 -30 1 c-16 0 -43 -6 -60 -14z"/> <path d="M1790 2921 c0 -11 19 -15 143 -31 99 -13 124 -13 112 -1 -6 5 -57 15 -115 21 -58 6 -113 13 -122 16 -10 3 -18 1 -18 -5z"/> <path d="M3698 2912 c-65 -8 -118 -19 -118 -23 0 -5 8 -9 18 -9 33 1 224 28 228 33 13 12 -20 12 -128 -1z"/> <path d="M1685 2796 c-118 -32 -183 -66 -251 -129 -78 -72 -106 -132 -112 -242 -4 -73 -1 -85 25 -135 24 -46 38 -60 85 -84 49 -24 63 -27 104 -21 64 9 117 59 112 107 -2 26 -8 33 -35 40 -89 23 -98 145 -17 241 85 101 292 136 429 73 57 -26 118 -83 145 -136 26 -50 50 -176 50 -257 0 -134 -50 -274 -120 -337 -37 -34 -133 -72 -151 -60 -5 3 -9 66 -9 140 0 121 2 139 22 174 l23 38 -23 40 c-18 33 -22 55 -22 127 0 48 8 118 17 156 24 100 -2 115 -111 66 -30 -14 -76 -29 -101 -33 -29 -4 -51 -14 -60 -27 -13 -18 -11 -25 12 -65 24 -41 26 -53 25 -145 -1 -70 -6 -107 -17 -123 -19 -30 -19 -54 1 -82 13 -19 15 -49 12 -186 -3 -159 -4 -164 -30 -202 -34 -49 -35 -71 -5 -85 18 -8 36 -6 83 11 32 12 98 26 146 31 173 18 316 83 408 186 57 63 93 137 120 244 12 46 28 98 37 115 14 28 14 33 0 55 -9 14 -24 63 -33 109 -30 159 -109 276 -230 342 -141 76 -367 99 -529 54z m322 -18 c7 -6 27 -12 45 -14 52 -5 120 -29 111 -38 -4 -5 2 -5 15 -2 14 5 22 3 22 -4 0 -6 16 -18 35 -26 19 -8 35 -17 35 -20 0 -3 -5 -2 -12 2 -7 5 -8 3 -4 -5 5 -7 15 -10 23 -7 8 3 11 1 8 -4 -3 -5 3 -15 15 -22 11 -7 20 -19 20 -26 0 -7 5 -10 10 -7 6 3 10 -1 10 -10 0 -10 -5 -13 -12 -9 -8 4 -10 3 -5 -2 5 -5 14 -9 20 -9 12 0 29 -54 21 -67 -3 -4 3 -5 12 -1 12 4 15 3 10 -5 -4 -7 -3 -12 2 -12 8 0 20 -35 26 -80 2 -8 6 -26 10 -39 5 -13 4 -21 -1 -18 -5 3 -9 -3 -9 -13 0 -10 5 -16 10 -13 5 4 7 -1 3 -10 -3 -9 -1 -19 5 -23 7 -5 8 -2 4 7 -4 8 0 5 8 -5 19 -23 20 -36 5 -36 -5 0 -7 6 -3 13 4 6 3 8 -1 4 -16 -14 -14 -36 2 -30 13 5 13 2 -2 -20 -9 -15 -13 -27 -9 -27 5 0 3 -4 -4 -9 -7 -4 -14 -23 -16 -42 -3 -45 -37 -149 -47 -144 -4 3 -10 -2 -13 -11 -3 -8 -2 -12 4 -9 6 4 5 -5 -1 -19 -9 -19 -15 -23 -25 -15 -9 8 -12 4 -10 -15 2 -14 0 -23 -4 -21 -4 2 -12 -7 -19 -21 -7 -15 -16 -22 -23 -18 -8 5 -9 2 -4 -11 6 -16 4 -16 -11 -4 -9 8 -14 9 -10 3 8 -14 -34 -44 -60 -44 -14 0 -15 -2 -5 -9 10 -6 7 -10 -12 -15 -15 -4 -25 -10 -22 -15 3 -4 -6 -7 -19 -5 -14 1 -23 -2 -19 -7 5 -8 -10 -13 -19 -6 -2 1 -11 -4 -19 -11 -13 -10 -17 -10 -20 0 -4 10 -9 8 -22 -5 -19 -19 -31 -23 -21 -7 3 6 2 10 -4 10 -5 0 -11 -5 -13 -11 -4 -11 -56 -19 -128 -20 -38 0 -90 -17 -90 -29 0 -4 -16 -6 -35 -4 -20 1 -33 -2 -29 -7 3 -5 1 -9 -4 -9 -6 0 -13 7 -16 16 -4 10 -2 13 6 8 8 -5 9 -2 5 10 -4 9 -3 15 2 12 5 -3 12 1 15 10 4 10 2 13 -7 8 -8 -5 -8 -2 2 9 7 9 16 15 20 13 3 -2 6 20 6 49 -1 30 2 52 5 50 3 -2 4 51 2 118 -4 147 -5 157 -12 152 -3 -2 -12 6 -20 18 -12 21 -12 21 5 7 17 -14 18 -14 8 5 -9 15 -7 25 6 45 14 20 17 45 16 132 -1 63 -7 113 -14 121 -6 8 -8 16 -5 20 3 3 -3 11 -14 18 -18 11 -18 14 -3 31 8 10 20 18 26 18 5 0 3 -5 -5 -10 -24 -15 2 -11 34 5 22 12 32 12 43 4 11 -10 12 -8 7 7 -4 10 -3 16 1 11 5 -4 15 -1 24 7 9 7 30 18 48 24 26 9 34 8 45 -6 11 -14 10 -15 -6 -9 -16 6 -17 5 -7 -7 8 -9 8 -16 2 -20 -5 -4 -10 -14 -11 -24 0 -9 -3 -59 -6 -110 -7 -106 1 -166 19 -156 7 4 9 4 5 -1 -4 -4 -3 -15 1 -24 6 -11 3 -30 -10 -56 -15 -32 -18 -64 -19 -167 0 -155 9 -182 57 -175 19 3 31 2 28 -3 -3 -4 25 5 62 20 37 16 72 26 77 23 5 -3 6 -1 2 6 -4 6 -12 9 -17 6 -17 -11 -9 2 13 21 20 18 21 18 15 1 -4 -11 -3 -16 4 -12 6 4 8 13 5 20 -8 21 29 56 50 48 18 -7 18 -6 2 11 -21 20 -24 31 -6 20 8 -5 9 -2 5 9 -3 9 -2 19 3 22 6 4 10 19 10 35 0 16 4 31 8 34 11 7 16 59 16 156 -1 118 -7 189 -18 183 -4 -3 -5 5 -1 17 5 17 4 21 -6 15 -9 -6 -11 -2 -7 13 4 12 2 20 -2 17 -5 -3 -11 8 -15 25 -4 16 -10 30 -15 30 -4 0 -13 13 -20 30 -7 16 -17 27 -23 23 -6 -4 -8 0 -4 9 6 17 -24 32 -53 28 -8 -1 -12 1 -8 5 4 4 -9 16 -28 27 -20 11 -39 17 -41 14 -3 -3 -15 0 -27 6 -11 7 -43 13 -71 14 -27 1 -62 4 -77 7 -17 2 -28 0 -28 -7 0 -6 -15 -12 -33 -13 -19 -1 -51 -9 -73 -19 -21 -10 -47 -17 -56 -17 -10 0 -15 -4 -12 -8 3 -5 0 -9 -6 -9 -6 0 -9 -4 -5 -9 3 -5 -4 -12 -15 -16 -11 -3 -25 -16 -31 -28 -7 -12 -18 -26 -26 -30 -7 -5 -11 -13 -7 -18 3 -5 1 -16 -5 -23 -14 -16 -14 -97 -2 -178 0 -5 6 -8 12 -8 8 0 7 6 -2 18 -7 9 -1 6 13 -7 15 -13 25 -28 22 -32 -3 -5 1 -6 9 -3 24 9 39 -20 26 -50 -7 -14 -17 -26 -22 -26 -5 0 -3 7 4 17 13 15 12 15 -8 3 -12 -8 -21 -18 -20 -23 1 -5 -18 -11 -43 -13 -33 -2 -41 -1 -30 7 11 8 7 9 -16 4 -23 -4 -34 -1 -45 12 -13 17 -13 17 6 3 19 -14 19 -14 6 2 -7 10 -17 15 -22 12 -11 -6 -48 34 -49 52 0 6 -6 16 -13 22 -22 19 -13 156 13 208 14 25 27 41 34 37 6 -4 4 2 -4 12 -8 10 -10 16 -4 12 6 -4 20 3 30 15 12 14 14 19 4 13 -16 -9 -14 -6 40 40 19 17 29 23 23 15 -10 -13 -8 -16 6 -16 12 0 18 7 17 20 -1 14 8 24 29 31 17 5 33 14 36 18 3 5 9 8 13 8 7 -1 33 7 61 19 41 17 56 20 50 10 -3 -6 -1 -10 4 -10 6 0 11 4 11 10 0 5 6 7 14 4 8 -3 17 -1 20 4 8 13 237 12 253 0z"/> <path d="M1530 2700 c-13 -8 -13 -10 2 -10 9 0 20 5 23 10 8 13 -5 13 -25 0z"/> <path d="M1538 2673 c7 -3 16 -2 19 1 4 3 -2 6 -13 5 -11 0 -14 -3 -6 -6z"/> <path d="M2388 2433 c6 -2 9 -10 6 -15 -4 -7 -2 -8 5 -4 13 9 5 26 -12 25 -9 0 -8 -2 1 -6z"/> <path d="M1503 2252 c-9 -6 -7 -11 6 -19 15 -10 19 -9 17 2 -3 20 -10 25 -23 17z"/> <path d="M1735 1709 c-10 -15 3 -25 16 -12 7 7 7 13 1 17 -6 3 -14 1 -17 -5z"/> <path d="M3290 2773 c-49 -8 -58 -50 -18 -83 30 -25 37 -74 35 -230 -2 -130 -4 -150 -21 -169 -19 -21 -19 -22 2 -60 19 -34 22 -54 22 -165 0 -140 -13 -211 -41 -229 -25 -16 -25 -63 0 -77 11 -5 46 -10 78 -10 32 0 74 -4 92 -10 82 -23 286 -52 329 -46 49 7 114 41 149 78 102 108 87 335 -27 442 -25 24 -52 45 -60 48 -11 3 -6 13 19 34 52 43 74 104 74 197 0 66 -5 87 -29 135 -55 108 -151 147 -349 143 -153 -4 -183 -4 -208 1 -12 3 -33 3 -47 1z m37 -36 c6 -4 14 -3 18 2 3 6 15 7 28 2 27 -11 99 -12 93 -2 -7 10 150 4 218 -9 33 -6 65 -9 72 -6 9 3 11 -1 7 -11 -4 -11 -2 -14 5 -9 7 4 12 3 12 -3 0 -5 -5 -11 -12 -13 -7 -3 -5 -7 6 -11 10 -4 15 -3 11 3 -3 6 2 10 12 10 15 0 16 2 3 11 -10 7 -11 9 -2 7 8 -2 13 -8 13 -13 0 -17 31 -45 43 -38 6 3 8 3 4 -1 -4 -5 3 -27 15 -49 17 -34 21 -57 20 -117 -1 -41 -4 -84 -7 -95 -2 -11 -5 -23 -5 -27 -1 -5 -6 -8 -12 -8 -8 0 -8 5 1 15 9 10 9 15 1 15 -29 0 -28 1 -16 -37 5 -17 2 -23 -10 -23 -10 0 -13 -5 -9 -12 5 -8 1 -8 -12 2 -10 8 -16 10 -12 6 10 -12 -12 -37 -25 -29 -6 3 -7 1 -3 -6 4 -6 11 -9 15 -7 4 3 8 -1 8 -9 0 -8 -4 -12 -9 -9 -4 3 -5 -2 -2 -10 3 -8 19 -21 35 -28 16 -7 32 -21 35 -31 3 -9 9 -15 14 -12 5 3 11 -4 15 -15 3 -11 11 -20 16 -20 5 0 9 -7 9 -15 0 -8 4 -15 10 -15 5 0 7 -6 4 -14 -3 -8 0 -25 7 -38 12 -22 11 -22 -6 -8 -17 14 -17 14 -5 -7 8 -12 18 -20 22 -17 4 3 6 -1 4 -8 -3 -7 -7 -26 -10 -43 -5 -22 -4 -26 4 -15 7 12 10 8 10 -17 0 -17 -4 -34 -9 -38 -6 -3 -10 -13 -10 -23 -1 -38 -5 -52 -13 -52 -5 0 -13 -11 -18 -25 -5 -14 -15 -25 -21 -25 -7 0 -9 -3 -6 -7 7 -7 -31 -37 -48 -38 -5 -1 -22 -6 -36 -12 -15 -7 -52 -9 -90 -6 -35 3 -76 6 -91 7 -14 0 -25 3 -23 7 2 3 -12 6 -31 7 -71 5 -84 7 -84 15 0 5 -10 5 -21 2 -12 -4 -19 -3 -16 2 3 5 -11 8 -31 8 -20 0 -45 4 -56 8 -12 6 -16 5 -12 -1 4 -7 -4 -9 -21 -7 -16 2 -31 4 -34 4 -11 2 -3 40 13 58 30 35 31 47 39 284 2 64 -2 82 -19 106 -16 23 -18 33 -10 41 7 7 9 12 5 12 -4 0 -2 6 5 14 7 8 16 12 20 9 4 -2 5 4 1 13 -5 13 -3 15 7 9 9 -5 11 -4 6 4 -4 6 -10 9 -14 7 -4 -2 -7 65 -7 150 0 85 4 154 8 154 5 0 5 5 2 10 -4 6 -11 8 -16 5 -5 -4 -9 -1 -9 5 0 6 -11 22 -25 35 -16 17 -20 25 -10 25 8 0 15 -5 15 -12 0 -6 3 -8 7 -4 4 4 -3 15 -15 25 l-23 17 23 -1 c13 0 28 -4 35 -8z"/> <path d="M3565 2650 c-27 -4 -45 -8 -40 -9 6 -1 2 -6 -7 -12 -16 -9 -18 -27 -18 -138 0 -89 4 -133 13 -145 13 -18 98 -40 107 -27 6 8 63 35 71 33 4 -1 5 9 2 21 -3 16 -2 18 5 9 7 -11 10 -11 15 2 4 9 4 23 1 31 -4 8 -2 15 3 15 17 0 8 116 -12 147 -25 40 -57 73 -69 73 -6 0 -4 -5 4 -11 12 -9 12 -10 -3 -5 -10 3 -21 6 -23 6 -3 0 -2 5 1 10 3 6 5 9 3 8 -2 0 -25 -4 -53 -8z m76 -46 c33 -16 53 -64 53 -124 0 -86 -32 -126 -104 -131 -63 -4 -60 -11 -60 135 0 120 2 135 18 139 22 5 60 -2 93 -19z"/> <path d="M3550 2486 c0 -66 4 -117 10 -121 6 -4 10 33 10 103 0 115 6 130 47 115 11 -4 14 -3 9 5 -4 7 -23 12 -42 12 l-34 0 0 -114z"/> <path d="M3320 2251 c0 -5 5 -13 10 -16 6 -3 10 -2 10 4 0 5 -4 13 -10 16 -5 3 -10 2 -10 -4z"/> <path d="M3553 2233 c4 -4 -6 -12 -22 -19 l-30 -12 0 -160 c0 -140 2 -162 17 -175 19 -17 87 -48 93 -43 2 2 19 6 37 9 24 5 31 3 27 -6 -4 -6 0 -4 8 6 8 9 19 17 26 17 6 0 11 5 11 10 0 6 8 10 17 10 9 0 14 3 10 6 -3 3 3 22 13 42 31 60 28 149 -8 217 -9 17 -15 33 -14 38 1 4 -1 6 -5 5 -14 -3 -93 34 -89 41 3 3 -13 5 -35 4 -21 -1 -39 2 -39 8 0 5 -5 9 -12 9 -6 0 -8 -3 -5 -7z m103 -57 c63 -29 94 -84 94 -165 0 -112 -54 -162 -157 -145 l-58 9 -3 163 -2 162 37 0 c21 0 61 -11 89 -24z"/> <path d="M3557 2174 c-11 -11 -9 -272 3 -279 6 -4 10 42 10 131 l0 137 48 -6 c29 -4 41 -3 32 2 -22 14 -84 23 -93 15z"/> <path d="M3849 1763 c-13 -16 -12 -17 4 -4 16 13 21 21 13 21 -2 0 -10 -8 -17 -17z"/> <path d="M3560 1760 c-8 -5 -10 -10 -5 -10 6 0 17 5 25 10 8 5 11 10 5 10 -5 0 -17 -5 -25 -10z"/> <path d="M3740 1746 c0 -2 7 -7 16 -10 8 -3 12 -2 9 4 -6 10 -25 14 -25 6z"/> <path d="M2553 2690 c-32 -13 -29 -49 5 -76 27 -22 27 -23 31 -159 3 -127 1 -140 -18 -166 -26 -35 -26 -33 0 -68 19 -26 20 -39 17 -169 -3 -138 -4 -141 -30 -169 -30 -31 -36 -61 -16 -81 14 -14 86 -16 120 -3 38 14 387 -6 414 -24 13 -8 35 -15 48 -15 29 0 27 -8 59 173 26 143 23 161 -28 155 -21 -2 -37 -15 -60 -48 -40 -59 -100 -89 -180 -90 -117 -3 -105 -16 -105 118 0 100 3 122 20 150 l21 34 -21 42 c-15 32 -20 61 -19 117 1 129 12 181 42 211 30 30 31 36 17 58 -9 15 -56 18 -150 11 -19 -1 -60 0 -90 3 -30 3 -65 2 -77 -4z m135 -33 c4 -3 32 -1 62 4 30 5 62 6 72 3 14 -4 14 -8 -6 -27 -19 -19 -24 -37 -28 -112 -8 -139 -5 -210 12 -230 15 -18 22 -68 8 -59 -16 10 -26 -77 -22 -186 3 -75 8 -117 17 -122 43 -27 270 4 251 34 -4 6 0 7 12 1 32 -16 49 -10 50 17 1 14 2 28 4 33 1 4 3 10 5 15 9 31 18 42 30 32 6 -5 14 -7 17 -5 7 8 1 -42 -7 -55 -9 -14 -18 -67 -19 -112 0 -21 -3 -38 -7 -38 -4 0 -6 -8 -5 -17 0 -10 -3 -19 -8 -20 -5 -1 -12 -7 -17 -14 -6 -11 -12 -10 -26 3 -21 19 -16 19 -178 23 -66 2 -155 6 -199 8 -52 3 -74 2 -65 -5 10 -7 5 -8 -14 -3 -19 4 -26 2 -22 -4 3 -7 0 -8 -9 -5 -9 3 -16 11 -16 18 0 6 -5 4 -10 -4 -6 -9 -10 -10 -10 -3 0 6 6 18 13 25 25 25 46 83 43 118 -2 22 3 40 13 48 10 9 11 11 2 6 -11 -5 -13 -3 -8 9 3 10 2 17 -3 17 -6 0 -6 10 0 26 6 14 6 23 1 20 -5 -3 -5 12 1 36 7 31 6 43 -4 49 -7 5 -8 9 -3 9 6 0 3 5 -5 10 -12 8 -12 10 5 10 18 0 18 1 -3 16 -22 15 -32 41 -10 28 6 -4 8 -3 5 3 -3 5 -2 26 4 46 11 41 18 197 8 191 -4 -2 -6 19 -5 46 0 28 -1 50 -4 50 -3 0 -14 13 -25 29 -10 16 -23 27 -27 25 -4 -3 -8 -1 -8 5 0 5 6 12 13 15 13 6 113 0 125 -7z m135 -37 c-10 -11 -19 -20 -21 -20 -1 0 2 9 8 20 6 11 15 20 20 20 6 0 2 -9 -7 -20z m276 -636 c4 3 8 -1 8 -8 0 -8 -7 -13 -16 -11 -9 1 -15 5 -13 8 1 4 2 13 3 20 0 9 2 9 6 -1 2 -6 8 -10 12 -8z"/> <path d="M3140 2041 c0 -10 19 -25 25 -20 1 2 -3 10 -11 17 -8 7 -14 8 -14 3z"/> <path d="M1797 2650 c-109 -19 -201 -87 -225 -168 -11 -37 -6 -112 8 -112 3 0 5 13 2 29 -6 42 38 132 80 164 82 63 217 92 317 69 24 -6 39 -6 34 -1 -11 11 -106 29 -142 28 -14 -1 -48 -5 -74 -9z"/> <path d="M2887 2632 c-4 -9 -16 -29 -28 -43 -19 -24 -21 -40 -23 -152 -1 -93 2 -129 12 -139 11 -11 12 -7 7 25 -4 21 -4 81 0 134 6 83 10 99 31 118 24 22 32 59 15 69 -5 3 -11 -2 -14 -12z"/> <path d="M4475 2574 c-139 -82 -213 -155 -187 -187 9 -11 8 -14 -3 -14 -8 0 -15 6 -15 14 0 26 -19 12 -53 -39 -55 -85 -67 -114 -68 -170 -1 -51 -1 -52 -13 -24 -11 25 -14 26 -20 10 -12 -31 -19 -149 -11 -190 l7 -39 20 50 c36 93 100 220 159 313 33 52 56 98 53 103 -3 5 1 7 8 4 16 -6 63 60 61 86 -1 10 4 19 11 19 7 0 21 8 32 18 11 9 26 18 34 20 8 2 18 9 23 15 5 8 7 4 4 -8 -2 -11 -10 -19 -18 -17 -10 3 -11 0 -3 -8 6 -6 9 -22 6 -36 -3 -19 -7 -22 -14 -12 -7 10 -8 8 -6 -7 3 -31 -11 -77 -30 -93 -12 -9 -13 -12 -2 -7 8 4 6 -1 -4 -9 -23 -19 -36 -20 -36 -5 0 5 -4 8 -9 4 -5 -3 -12 -1 -16 5 -6 10 5 13 35 11 10 0 11 1 3 5 -17 7 -17 35 -1 31 7 -1 12 4 13 11 0 6 5 12 10 12 6 -1 9 -11 7 -23 -2 -20 -2 -20 9 -4 16 27 -6 50 -33 34 -38 -23 -131 -164 -199 -302 -61 -125 -149 -357 -149 -394 0 -8 14 5 30 27 17 23 30 54 30 69 0 54 12 72 65 102 29 17 77 53 106 82 l54 51 -37 -6 c-20 -4 -39 -3 -42 2 -3 5 5 10 19 10 53 0 92 52 141 186 l14 38 -28 -7 c-35 -9 -36 -10 -24 -31 10 -18 3 -37 -35 -91 -13 -17 -23 -35 -23 -40 0 -15 -79 -55 -92 -47 -7 4 -8 3 -4 -4 4 -7 1 -12 -8 -12 -22 0 -23 -2 14 70 6 12 8 25 5 30 -3 6 1 7 10 4 9 -4 15 -3 14 2 -4 25 2 45 13 38 7 -4 8 -3 4 4 -6 11 54 115 74 127 4 2 16 -2 26 -10 14 -11 15 -14 3 -9 -12 4 -18 -3 -23 -22 -8 -30 -1 -45 8 -17 4 10 26 27 49 38 39 19 43 25 63 90 11 39 33 93 47 122 46 90 36 93 -78 27z m-65 -88 c0 -3 -4 -8 -10 -11 -5 -3 -10 -1 -10 4 0 6 5 11 10 11 6 0 10 -2 10 -4z m-33 -29 c0 -7 -9 -14 -20 -14 -19 -2 -19 -2 -1 12 11 8 19 15 20 15 0 0 1 -6 1 -13z m-26 -36 c-6 -4 -17 -15 -24 -25 -12 -16 -14 -16 -14 -2 0 9 4 16 8 16 5 0 6 6 3 14 -4 11 0 13 16 9 13 -3 17 -9 11 -12z m-68 -78 c-11 -10 -18 -23 -16 -28 2 -6 -5 -20 -15 -30 -19 -21 -36 -55 -34 -67 1 -4 -4 -5 -12 -2 -10 4 -13 -3 -11 -28 2 -18 1 -27 -2 -20 -4 10 -8 10 -21 0 -15 -11 -15 -11 -5 3 7 9 10 18 7 22 -3 3 0 16 7 29 7 12 14 29 15 35 2 14 29 43 39 43 3 0 3 -5 -1 -12 -4 -7 -3 -8 5 -4 9 6 9 11 0 22 -6 8 -10 16 -8 18 43 33 88 50 52 19z m-141 -265 c-7 -7 -12 -8 -12 -2 0 14 12 26 19 19 2 -3 -1 -11 -7 -17z m134 -7 c-4 -5 -1 -11 5 -13 6 -2 3 -13 -10 -28 -11 -14 -20 -19 -21 -12 0 6 -4 12 -9 12 -6 0 -8 -9 -6 -19 3 -15 -1 -18 -12 -14 -11 4 -14 2 -9 -5 4 -7 3 -12 -2 -12 -5 0 -12 9 -15 20 -3 13 -1 18 6 13 6 -4 8 0 4 10 -4 11 -1 17 8 17 8 0 15 5 15 11 0 5 -5 7 -12 3 -7 -4 -8 -3 -4 5 4 6 11 9 15 7 4 -3 13 -1 21 5 19 11 33 12 26 0z m-86 -91 c0 -5 -5 -10 -11 -10 -5 0 -7 5 -4 10 3 6 8 10 11 10 2 0 4 -4 4 -10z"/> <path d="M3936 2575 c13 -43 16 -132 5 -172 -6 -23 -27 -64 -45 -92 -26 -38 -31 -51 -20 -55 19 -7 71 66 81 113 12 57 7 153 -11 191 -9 19 -14 26 -10 15z"/> <path d="M1982 2547 c-20 -50 -27 -258 -11 -280 12 -15 14 -2 14 90 0 61 7 129 14 156 16 57 2 85 -17 34z"/> <path d="M2095 2531 c-3 -5 -2 -12 3 -15 5 -3 9 1 9 9 0 17 -3 19 -12 6z"/> <path d="M4460 2520 c-12 -7 -10 -9 7 -7 12 0 19 5 17 9 -6 10 -6 10 -24 -2z"/> <path d="M2445 2480 c3 -14 13 -56 21 -95 8 -38 20 -74 25 -80 11 -11 9 0 -17 108 -8 33 -19 66 -25 75 -8 14 -9 12 -4 -8z"/> <path d="M4435 2481 c-2 -4 8 -12 22 -18 20 -10 22 -9 14 1 -6 7 -9 15 -6 18 3 2 -2 5 -10 5 -9 0 -18 -3 -20 -6z"/> <path d="M1171 2300 c-57 -33 -110 -68 -118 -77 -9 -12 -12 -35 -10 -67 4 -40 10 -55 36 -78 40 -36 71 -35 138 3 65 38 52 49 159 -144 42 -75 81 -140 85 -143 22 -13 4 -19 -54 -19 -54 0 -69 -4 -100 -28 -61 -47 -72 -77 -72 -202 0 -76 6 -128 18 -168 17 -57 17 -57 -4 -80 -60 -63 -76 -171 -36 -248 27 -52 102 -106 158 -115 35 -6 39 -11 56 -56 10 -28 24 -53 31 -56 7 -2 70 18 140 46 297 117 623 198 877 217 50 4 104 9 120 11 65 8 387 4 505 -6 316 -27 645 -108 958 -235 51 -20 98 -35 105 -32 7 2 20 28 31 56 14 40 23 51 40 51 31 0 117 43 143 71 73 79 69 223 -8 300 -19 19 -19 21 -3 67 10 27 19 92 22 153 4 91 2 112 -16 151 -28 65 -80 101 -150 106 -52 3 -60 1 -94 -28 -79 -66 -68 -174 22 -213 33 -15 34 -15 9 -16 -15 -1 -58 8 -95 20 -106 31 -103 29 -65 47 44 22 50 39 16 52 -35 13 -69 13 -119 -2 l-41 -13 75 -5 c52 -4 69 -8 55 -14 -56 -22 -65 -29 -54 -42 6 -7 31 -17 57 -23 26 -6 67 -17 92 -25 25 -7 60 -12 78 -11 41 3 100 48 108 82 10 37 -7 77 -34 81 -27 4 -28 -8 -2 -30 25 -22 14 -59 -22 -72 -88 -31 -142 87 -72 157 47 48 120 43 176 -10 80 -76 51 -206 -57 -254 -57 -26 -85 -24 -220 21 -255 83 -528 144 -825 182 -139 17 -660 18 -790 0 -366 -49 -604 -102 -844 -187 -112 -39 -153 -43 -211 -16 -48 22 -69 44 -90 95 -46 108 55 226 168 195 101 -27 99 -189 -3 -189 -50 0 -79 52 -45 80 19 16 19 30 1 30 -24 0 -46 -30 -46 -61 0 -63 75 -97 139 -64 33 17 64 75 54 101 -5 13 5 9 32 -14 46 -37 72 -43 55 -13 -16 31 -12 53 19 117 25 49 31 76 36 159 7 99 7 100 -27 165 -32 62 -35 65 -68 63 -80 -3 -170 29 -228 81 -29 25 -72 107 -72 136 0 11 -3 20 -7 20 -5 0 -55 -27 -112 -60z m100 -2 c1 -7 1 -16 1 -20 -1 -3 5 -12 13 -18 8 -7 15 -21 15 -31 0 -11 7 -19 16 -19 8 0 12 -4 9 -10 -3 -5 -1 -10 6 -10 7 0 10 -3 6 -6 -3 -4 8 -17 26 -29 18 -12 31 -28 29 -36 -3 -11 -1 -12 10 -1 11 11 10 14 -2 22 -8 5 -11 10 -7 10 8 0 58 -30 67 -40 3 -3 14 -5 25 -5 11 0 25 -4 32 -8 7 -5 29 -7 50 -5 30 2 39 -1 48 -19 7 -13 14 -20 17 -18 22 22 30 -194 9 -233 -6 -11 -11 -28 -11 -38 0 -9 -8 -23 -17 -31 -10 -8 -12 -12 -5 -8 15 7 15 4 2 -30 -6 -17 -14 -24 -22 -19 -9 5 -8 2 1 -9 12 -15 12 -17 -4 -11 -13 5 -16 4 -11 -5 6 -10 4 -10 -11 -1 -17 11 -47 63 -48 82 0 4 -8 16 -17 27 -9 11 -14 22 -11 25 4 3 1 6 -7 6 -10 0 -10 4 1 17 12 15 12 16 -3 10 -10 -3 -19 -2 -19 3 -1 6 -2 16 -3 23 -1 6 -8 11 -15 9 -10 -2 -12 5 -7 30 4 21 3 28 -3 19 -7 -11 -11 -10 -20 6 -5 11 -8 23 -4 26 9 10 -18 38 -30 30 -6 -4 -7 -1 -3 6 5 7 1 20 -6 29 -25 29 -33 46 -17 38 8 -4 3 2 -10 13 -13 12 -20 21 -16 21 3 0 0 6 -7 14 -53 54 -57 63 -41 86 15 21 15 22 -8 10 -19 -11 -25 -10 -39 7 -8 11 -22 22 -30 26 -11 4 -10 6 5 7 17 2 16 3 -4 9 -14 4 -26 12 -27 19 -1 7 0 8 3 2 2 -5 13 0 23 12 15 19 20 20 34 9 9 -8 19 -11 23 -7 3 3 1 6 -5 6 -7 0 -12 5 -12 10 0 15 30 12 31 -2z m-88 -75 c14 -8 7 -19 -28 -37 -34 -19 -51 -54 -20 -42 24 9 45 -4 45 -30 0 -54 -77 -49 -106 7 -20 40 -17 67 11 95 21 21 31 24 58 19 18 -4 35 -9 40 -12z m56 -61 c19 -28 19 -28 0 -40 -27 -17 -39 -15 -39 8 0 11 -7 23 -16 27 -15 6 -15 8 2 20 25 18 30 17 53 -15z m408 -374 c-3 -8 -6 -5 -6 6 -1 11 2 17 5 13 3 -3 4 -12 1 -19z m-140 -43 c0 -8 -4 -12 -9 -9 -4 3 -8 9 -8 15 0 5 4 9 8 9 5 0 9 -7 9 -15z m1761 -124 c261 -34 501 -88 738 -167 116 -39 147 -45 190 -41 60 6 129 38 144 67 6 11 15 20 19 20 9 0 6 -15 -25 -128 l-17 -62 26 -28 c78 -81 75 -198 -6 -269 -36 -31 -109 -59 -126 -49 -12 8 -25 -11 -45 -66 l-17 -46 -52 22 c-29 13 -117 46 -197 73 -381 132 -696 186 -1090 186 -240 -1 -340 -9 -570 -49 -130 -23 -185 -35 -325 -74 -91 -25 -295 -95 -366 -126 l-77 -32 -19 51 c-19 49 -22 51 -71 62 -65 15 -119 56 -143 109 -32 70 -19 144 36 204 25 28 31 42 24 54 -7 13 -39 147 -39 165 0 3 18 -11 39 -30 41 -37 93 -57 147 -57 17 0 93 20 169 45 295 97 540 146 915 185 146 15 555 4 738 -19z"/> <path d="M1207 2276 c-4 -10 -1 -13 8 -9 8 3 12 9 9 14 -7 12 -11 11 -17 -5z"/> <path d="M2550 1617 c-3 -2 -44 -7 -92 -11 -238 -17 -516 -75 -824 -172 -160 -50 -223 -55 -292 -24 l-44 20 7 -33 c4 -17 13 -46 20 -64 12 -29 11 -33 -17 -60 -43 -40 -58 -75 -58 -131 0 -86 68 -152 155 -152 40 0 41 -1 59 -50 10 -27 21 -50 25 -50 4 0 61 20 126 45 377 144 726 213 1123 222 251 6 508 -14 702 -57 237 -51 354 -85 556 -161 72 -27 133 -49 136 -49 4 0 14 22 24 50 l18 50 46 0 c89 0 163 83 154 173 -3 39 -40 99 -75 125 -17 11 -17 15 -2 50 16 38 33 92 29 92 -1 0 -19 -9 -41 -20 -61 -31 -143 -27 -267 14 -255 84 -423 124 -703 168 -102 16 -197 21 -445 25 -173 3 -317 3 -320 0z m467 -30 c79 -1 143 -5 143 -8 0 -4 10 -7 23 -7 12 0 49 -3 82 -7 33 -4 75 -8 93 -8 17 0 32 -3 32 -6 0 -3 20 -7 43 -8 24 -1 89 -14 143 -28 54 -15 111 -27 126 -28 14 -1 24 -6 21 -11 -3 -4 4 -5 15 -2 11 4 23 2 27 -4 4 -6 17 -10 28 -9 12 1 33 -2 47 -8 14 -6 39 -15 55 -20 17 -5 29 -15 28 -21 -2 -6 4 -9 12 -6 8 4 12 11 8 18 -3 6 3 2 15 -8 12 -11 22 -16 22 -12 0 4 6 4 12 0 7 -5 21 -9 32 -9 10 -1 23 -10 28 -20 8 -13 12 -14 18 -4 7 10 13 9 32 -3 22 -15 72 -16 131 -4 9 2 17 -1 17 -7 0 -7 5 -5 10 3 8 12 10 9 10 -12 0 -15 -5 -30 -11 -33 -7 -5 -2 -16 13 -33 13 -14 17 -22 11 -18 -7 4 -13 3 -13 -1 0 -5 14 -14 32 -21 17 -6 29 -15 25 -18 -3 -4 0 -18 7 -33 8 -14 13 -37 11 -51 -1 -14 -3 -33 -4 -44 -1 -11 -6 -16 -15 -13 -9 4 -17 -2 -21 -14 -4 -10 -11 -19 -16 -19 -6 0 -7 -5 -3 -12 4 -6 3 -8 -4 -5 -14 9 -43 -3 -36 -14 3 -5 -2 -9 -11 -9 -9 0 -14 4 -10 9 3 6 -7 6 -27 0 -18 -5 -34 -9 -36 -9 -2 0 -12 -20 -23 -45 -11 -25 -22 -45 -26 -45 -3 0 -3 7 1 15 3 8 1 15 -4 15 -6 0 -10 -6 -10 -12 0 -8 -3 -9 -8 -3 -8 11 -27 18 -53 19 -11 0 -15 7 -12 21 3 13 2 16 -4 8 -6 -9 -48 -12 -48 -3 0 1 -7 3 -15 5 -39 8 -46 11 -55 22 -5 7 -22 14 -36 15 -20 2 -25 6 -21 18 5 13 3 13 -11 1 -15 -12 -17 -12 -11 2 3 8 13 18 22 22 9 3 13 3 10 -1 -8 -7 17 -35 29 -33 4 1 10 1 13 -1 3 -1 18 -3 34 -5 16 -2 33 -10 37 -17 7 -11 9 -11 9 0 0 7 5 10 11 7 16 -11 59 4 59 20 0 8 -6 15 -12 15 -7 0 -5 5 5 11 9 6 15 14 12 20 -4 5 -2 9 4 9 6 0 7 7 4 17 -4 10 -2 14 4 10 6 -4 13 7 17 25 5 23 2 34 -9 41 -8 4 -15 13 -15 19 0 6 3 8 6 5 9 -9 44 58 44 83 0 23 -31 58 -47 53 -6 -2 -14 5 -18 17 -5 16 -10 18 -20 10 -9 -8 -14 -6 -19 6 -4 11 -10 13 -19 6 -15 -11 -47 -12 -47 0 0 4 -5 8 -11 8 -6 0 -8 -7 -5 -16 6 -15 4 -15 -11 -3 -11 9 -14 10 -9 2 4 -8 2 -13 -4 -13 -6 0 -8 -6 -4 -12 5 -10 4 -10 -6 -1 -14 13 -50 0 -50 -18 0 -6 7 -3 16 5 8 9 18 16 22 16 4 0 -5 -12 -20 -25 -16 -13 -28 -29 -28 -36 0 -8 -4 -8 -15 1 -20 17 -19 30 3 31 16 1 16 2 0 6 -10 2 -18 11 -18 18 0 18 -33 75 -43 75 -5 0 -5 5 -2 10 6 9 -8 14 -27 11 -5 0 -8 4 -8 10 0 5 -4 7 -10 4 -5 -3 -10 -2 -10 2 0 5 -24 9 -54 9 -33 0 -52 -4 -49 -9 4 -6 -3 -8 -16 -4 -19 5 -20 3 -9 -10 12 -15 11 -15 -9 -4 -20 10 -22 9 -16 -5 5 -13 3 -15 -7 -9 -10 6 -12 4 -7 -8 3 -10 2 -17 -3 -17 -4 0 -14 -17 -21 -37 -6 -21 -16 -43 -21 -50 -5 -7 -5 -12 1 -15 6 -2 7 -9 2 -17 -6 -10 -13 -11 -27 -3 -14 8 -23 7 -36 -5 -11 -10 -18 -12 -18 -5 0 7 -6 12 -13 12 -10 0 -11 14 -5 68 5 37 9 75 9 85 0 15 3 16 15 7 9 -8 14 -9 14 -2 0 6 -4 14 -10 17 -5 3 -9 14 -9 23 1 15 2 15 6 0 6 -24 18 -23 20 2 1 11 -4 20 -10 20 -7 0 -6 4 3 10 8 5 11 10 5 11 -32 4 -41 3 -48 -6 -5 -6 -7 -3 -3 8 6 18 -9 24 -19 6 -4 -5 -19 -7 -34 -4 -18 4 -32 1 -39 -8 -10 -12 -12 -22 -13 -89 0 -16 -4 -28 -9 -28 -6 0 -9 -3 -9 -7 1 -5 1 -34 0 -66 -1 -54 -2 -57 -18 -42 -13 13 -13 19 -4 25 10 6 9 15 -5 45 -10 21 -13 40 -8 43 13 10 14 64 2 79 -5 7 -6 18 -2 25 4 7 4 10 -1 6 -4 -4 -15 2 -24 13 -21 26 -123 51 -173 42 -43 -6 -47 -13 -53 -107 -2 -36 -7 -71 -10 -76 -3 -6 0 -10 7 -10 8 0 9 -3 3 -8 -6 -4 -12 -35 -13 -68 -3 -78 6 -86 95 -85 47 0 63 -3 53 -9 -9 -6 -10 -10 -3 -10 6 0 15 5 18 10 3 6 19 10 34 10 15 0 31 3 35 7 4 5 13 8 19 8 5 0 12 7 14 15 4 13 3 13 -6 0 -6 -8 -11 -10 -11 -4 0 5 7 19 15 30 14 18 14 17 11 -12 -4 -41 14 -63 55 -68 59 -8 89 -18 89 -30 0 -7 3 -6 9 2 5 9 20 12 40 9 17 -3 29 -1 25 4 -3 5 2 9 10 9 8 0 18 5 22 12 4 7 3 8 -4 4 -14 -8 -15 -4 -6 18 3 9 9 16 13 16 11 0 32 -50 26 -61 -4 -5 -1 -9 5 -9 6 0 8 -5 4 -12 -5 -8 -1 -8 12 2 10 8 16 11 12 6 -10 -12 17 -36 42 -36 12 0 19 -4 16 -9 -9 -13 63 -6 77 8 6 6 21 11 33 11 13 0 26 4 29 10 3 6 -1 7 -12 4 -10 -3 -7 1 6 9 13 8 30 28 37 46 17 41 36 41 24 0 -11 -37 -3 -84 16 -100 18 -15 18 -28 -2 -50 -14 -16 -18 -16 -30 -4 -8 8 -22 11 -30 8 -8 -3 -25 -1 -37 5 -12 5 -43 16 -70 22 -26 7 -50 17 -53 22 -3 5 -13 6 -23 3 -9 -3 -27 5 -43 20 -21 19 -27 21 -32 9 -4 -10 -14 -13 -33 -9 -16 4 -41 8 -58 11 -16 2 -39 7 -50 11 -18 6 -70 12 -115 14 -8 0 -42 5 -75 11 -33 6 -118 12 -190 14 -71 2 -141 6 -155 8 -14 2 -29 1 -34 -2 -4 -2 -65 -6 -135 -8 -69 -2 -139 -6 -156 -9 -16 -4 -68 -10 -115 -15 -111 -12 -148 -18 -160 -25 -6 -3 -10 1 -10 9 0 20 28 35 52 28 11 -3 24 1 29 9 7 11 9 10 9 -3 0 -10 5 -18 10 -18 7 0 7 6 0 19 -5 11 -10 22 -10 25 0 8 38 2 46 -7 4 -4 16 -7 26 -7 10 0 18 -4 18 -10 0 -5 12 -10 28 -9 l27 1 -25 8 -25 7 25 7 c14 3 47 8 73 10 50 4 80 27 70 53 -8 19 0 16 35 -15 33 -29 102 -43 102 -21 0 7 3 9 7 6 3 -4 12 -2 19 4 10 8 12 27 7 70 -4 38 -2 63 6 72 6 8 8 16 5 20 -3 3 6 29 20 58 15 28 28 61 30 73 4 30 -19 49 -51 42 -19 -5 -24 -4 -20 6 3 10 -4 13 -32 9 l-36 -5 30 -7 30 -7 -30 -1 c-16 -1 -25 -5 -20 -9 15 -10 18 -35 4 -26 -9 5 -10 2 -6 -9 17 -41 19 -52 6 -33 -11 18 -18 44 -21 83 -1 8 -7 9 -19 2 -10 -5 -38 -9 -64 -9 -33 0 -44 -3 -39 -12 5 -8 2 -9 -9 -5 -11 4 -17 1 -17 -7 0 -8 -3 -23 -6 -33 -5 -15 -4 -15 5 -3 9 13 13 12 28 -4 16 -18 16 -19 1 -7 -12 9 -18 10 -18 3 0 -6 9 -16 21 -22 11 -7 18 -18 15 -25 -2 -7 2 -16 11 -19 8 -4 13 -13 9 -21 -3 -8 0 -17 6 -21 7 -5 8 -2 3 6 -5 8 -4 11 3 6 18 -11 37 -122 22 -131 -5 -3 -15 1 -23 9 -8 8 -18 12 -22 8 -5 -4 -5 -2 -1 5 3 6 1 15 -5 18 -5 4 -8 13 -5 21 3 8 0 11 -10 7 -10 -4 -13 0 -8 13 5 16 4 16 -7 -1 -38 -62 -73 -62 -71 0 1 21 -1 43 -5 48 -10 16 -11 107 -1 107 4 0 8 4 8 9 0 16 -39 0 -45 -19 -3 -9 -1 -57 5 -106 5 -49 10 -95 10 -101 0 -22 67 -15 90 9 l20 22 0 -32 c0 -18 0 -35 0 -39 1 -8 -2 -8 -108 -18 -80 -7 -83 -6 -74 11 12 24 -8 219 -26 251 -16 28 -15 34 3 27 22 -9 105 5 105 17 0 6 -4 7 -10 4 -5 -3 -10 -2 -10 4 0 8 -59 5 -69 -5 -5 -5 -31 16 -31 26 0 4 22 6 50 5 27 -1 47 1 45 5 -2 4 15 6 38 6 23 -1 50 2 59 6 9 5 19 4 23 -2 4 -6 13 -7 24 -1 9 5 50 10 90 10 40 0 76 2 79 5 2 3 39 3 81 0 42 -2 140 -5 218 -7z m-705 -45 c8 -8 8 -12 1 -12 -14 0 -25 -41 -14 -54 5 -6 9 -27 10 -46 0 -39 7 -102 16 -140 5 -22 4 -22 -4 -5 -9 19 -10 19 -10 -2 -1 -13 5 -23 12 -24 9 0 9 -2 0 -5 -7 -3 -9 -12 -6 -20 3 -8 0 -14 -7 -14 -6 0 -9 4 -5 9 3 5 0 13 -6 16 -5 4 -8 13 -5 20 2 7 2 16 -2 19 -6 6 -10 21 -17 61 -2 11 -4 20 -5 20 -1 0 -3 14 -4 30 -1 17 -5 40 -10 53 -4 14 -3 22 3 22 17 0 13 15 -10 41 -17 19 -20 20 -15 5 6 -18 5 -18 -20 -1 -15 9 -24 12 -20 7 4 -7 -12 -13 -40 -18 -31 -4 -42 -9 -33 -15 11 -7 9 -9 -6 -10 -11 0 -14 -3 -7 -6 6 -2 12 -11 12 -19 0 -8 3 -14 8 -14 4 0 8 -25 10 -56 1 -32 6 -62 10 -68 11 -18 10 -60 -1 -74 -7 -9 -5 -11 9 -6 15 5 16 4 5 -4 -13 -9 -13 -13 0 -28 9 -12 10 -15 1 -10 -7 4 -22 26 -33 48 -11 22 -15 37 -8 33 8 -6 10 -4 4 5 -6 10 -4 12 9 7 10 -4 15 -3 11 4 -4 5 -16 7 -27 4 -14 -5 -21 -1 -25 14 -3 12 -10 21 -15 21 -6 0 -8 7 -5 15 4 8 1 17 -5 21 -7 5 -8 2 -3 -7 7 -12 6 -12 -6 0 -12 11 -12 14 -1 18 10 4 7 9 -9 17 -12 6 -24 18 -26 26 -4 13 -3 13 6 0 6 -8 11 -10 11 -4 0 15 -31 49 -52 57 -21 7 -24 33 -5 35 48 3 89 10 94 16 3 3 16 6 27 6 15 0 17 -3 8 -8 -8 -6 -2 -9 17 -9 28 0 29 2 13 14 -16 14 -16 14 0 9 10 -3 20 0 24 6 4 6 22 8 45 4 21 -3 40 -2 43 2 7 12 44 8 58 -6z m323 -25 c-5 -19 28 -117 40 -117 2 0 10 23 19 52 10 35 12 57 5 70 -9 16 -5 18 37 18 38 0 44 -3 35 -13 -6 -8 -24 -47 -41 -87 -32 -77 -40 -156 -18 -178 7 -7 10 -12 8 -13 -3 0 -26 -1 -51 -2 l-45 -3 4 51 c4 45 -1 62 -37 133 -23 45 -46 82 -51 82 -6 0 -10 4 -10 9 0 6 21 12 48 14 26 2 50 4 55 5 4 1 5 -8 2 -21z m492 7 c30 -4 49 -13 63 -31 26 -33 25 -59 -3 -87 l-23 -23 23 -17 c54 -40 4 -135 -68 -128 -3 1 -36 2 -73 3 -63 2 -67 3 -61 23 12 38 26 210 20 243 l-6 31 43 -4 c24 -3 62 -7 85 -10z m248 -28 c18 -1 23 -5 19 -16 -10 -22 -32 -128 -40 -187 l-6 -53 40 0 c23 0 44 5 47 10 14 23 26 9 20 -22 -4 -18 -9 -35 -11 -37 -2 -2 -46 4 -98 14 -82 14 -94 19 -82 31 17 17 40 139 41 216 0 54 1 57 22 52 13 -4 34 -7 48 -8z m-1405 -27 c0 -4 -18 -7 -39 -6 -22 1 -38 0 -36 -3 2 -3 -4 -14 -12 -25 -12 -15 -14 -16 -10 -3 3 9 0 19 -8 21 -15 6 -25 -1 -25 -17 0 -6 5 -4 11 4 8 12 9 9 5 -12 -5 -22 -3 -26 9 -22 13 5 15 -8 15 -85 0 -66 -3 -91 -12 -92 -9 0 -9 -2 1 -6 11 -5 11 -7 0 -14 -12 -8 -12 -10 0 -18 12 -8 12 -11 0 -24 -13 -12 -15 -9 -17 31 -1 24 -7 51 -13 58 -6 7 -8 21 -5 31 8 25 7 33 -1 31 -5 -2 -6 -9 -5 -17 3 -11 1 -11 -11 0 -8 8 -13 17 -10 22 2 4 -1 7 -7 7 -7 0 -9 7 -6 16 3 8 2 13 -2 10 -5 -3 -23 4 -40 15 -34 20 -58 26 -32 8 12 -9 12 -10 -3 -5 -10 3 -25 6 -33 6 -8 0 -14 5 -14 11 0 5 5 7 12 3 7 -4 8 -3 4 5 -9 14 -26 5 -26 -13 0 -15 -30 -17 -30 -2 0 6 -7 3 -14 -7 -9 -12 -16 -14 -21 -8 -3 6 -11 11 -17 11 -7 0 -6 -6 2 -15 12 -15 4 -20 -23 -16 -4 0 -16 -8 -28 -20 -18 -18 -19 -23 -7 -49 7 -16 16 -26 22 -23 5 3 6 1 2 -5 -4 -6 -2 -21 5 -33 6 -12 7 -19 2 -16 -4 3 -15 -2 -23 -11 -13 -14 -13 -15 0 -10 16 6 43 -16 33 -26 -4 -3 0 -6 7 -6 7 0 11 -3 7 -6 -3 -4 0 -18 7 -33 8 -14 12 -39 9 -55 -5 -22 -3 -27 7 -21 10 6 12 4 7 -8 -4 -12 -2 -14 10 -10 12 5 14 3 8 -8 -4 -8 -5 -11 0 -7 4 4 17 2 28 -4 17 -9 19 -8 14 6 -4 10 -2 16 6 15 30 -4 48 2 41 13 -4 6 -3 9 2 5 10 -6 98 33 102 46 1 4 2 14 2 22 0 8 6 14 13 12 6 -1 11 4 9 12 -3 12 0 12 12 1 18 -14 21 -40 6 -40 -5 0 -6 8 -3 17 6 15 5 16 -9 3 -14 -13 -14 -16 -1 -24 9 -5 19 -4 26 3 14 14 30 14 21 0 -3 -6 5 -3 19 6 15 9 31 14 37 10 5 -3 10 -1 10 5 0 7 9 9 23 5 14 -4 18 -3 9 3 -7 5 -12 13 -11 18 1 5 0 11 -1 14 -1 3 -2 16 -4 31 -1 18 4 25 16 26 10 1 18 -3 18 -8 0 -6 -4 -8 -9 -5 -10 7 -6 -43 5 -52 4 -4 4 1 1 10 -3 10 -2 20 3 23 6 4 10 -3 10 -15 0 -12 5 -18 10 -15 6 3 10 3 10 -2 0 -4 11 -8 25 -8 14 0 25 4 25 9 0 4 7 6 15 3 8 -4 17 -2 20 4 4 5 10 7 15 4 4 -3 13 2 20 10 14 17 35 21 25 5 -3 -5 -1 -10 4 -10 6 0 11 5 11 12 0 6 2 9 5 6 3 -3 1 -16 -4 -29 -5 -13 -10 -21 -10 -17 -1 4 -19 1 -41 -7 -22 -8 -47 -12 -55 -9 -9 4 -15 0 -16 -7 0 -8 -4 -5 -9 6 -7 17 -9 17 -9 3 -1 -12 -9 -18 -26 -18 -14 0 -25 -5 -25 -12 0 -6 -3 -9 -6 -5 -3 3 -17 2 -30 -3 -14 -6 -26 -6 -29 0 -4 6 -11 10 -17 10 -6 0 -8 -3 -5 -7 14 -13 -27 -32 -47 -21 -12 6 -16 7 -12 0 3 -5 -1 -13 -10 -16 -9 -4 -13 -2 -8 5 3 6 -5 3 -20 -6 -25 -17 -26 -17 -21 1 4 12 2 11 -6 -3 -7 -13 -20 -23 -31 -23 -10 0 -26 -4 -36 -9 -37 -19 -99 -41 -132 -46 -19 -4 -42 -13 -51 -21 -11 -10 -19 -12 -23 -5 -4 6 -14 7 -24 4 -15 -6 -15 -5 -3 10 12 15 12 17 -3 11 -18 -7 -19 15 -1 29 6 5 4 7 -5 6 -20 -3 -51 11 -46 20 3 4 -4 8 -15 8 -10 1 -19 -2 -19 -8 0 -5 -5 -9 -11 -9 -5 0 -8 4 -5 9 3 5 0 9 -7 8 -33 -1 -45 5 -50 23 -3 10 -2 21 2 23 3 2 0 2 -8 0 -7 -2 -24 8 -36 21 -18 19 -20 26 -9 30 8 3 14 11 13 18 0 10 -2 10 -6 0 -2 -6 -9 -10 -14 -6 -5 3 -3 15 6 27 20 28 19 46 -1 21 -11 -13 -10 -9 3 15 10 18 28 44 40 57 12 13 20 24 17 24 -3 0 -2 6 3 13 4 6 8 23 8 37 1 24 3 25 76 25 48 0 82 5 92 13 10 9 17 10 22 2 3 -5 11 -10 16 -10 6 0 8 4 4 9 -3 6 4 15 15 21 11 6 20 8 20 4 0 -3 11 1 25 10 13 9 35 16 49 16 14 0 27 4 30 8 3 5 19 9 35 10 16 0 42 7 58 16 16 8 41 13 56 12 15 -2 27 1 27 5 0 5 14 9 30 9 17 0 30 5 30 11 0 8 5 8 15 -1 8 -7 15 -16 15 -21z m263 -3 c-7 -35 25 -217 43 -243 14 -22 13 -23 -13 -23 -16 0 -39 -3 -52 -7 -21 -5 -23 -3 -18 16 6 26 -33 244 -45 249 -19 8 -6 21 25 25 66 8 64 8 60 -17z m-233 -37 c0 -26 105 -209 132 -230 20 -16 20 -16 -10 -22 -16 -3 -42 -9 -57 -13 -24 -6 -27 -4 -22 10 4 10 0 30 -8 46 -15 28 -16 29 -52 16 -42 -14 -52 -40 -33 -76 14 -26 14 -26 -33 -34 -35 -7 -38 -6 -28 11 15 29 26 259 12 267 -20 13 -12 26 17 27 15 0 36 4 47 9 30 13 35 12 35 -11z m1711 -5 c41 -21 72 -91 63 -141 -15 -84 -68 -143 -129 -143 -98 0 -153 104 -110 207 36 85 104 115 176 77z m-1957 -95 c56 -44 81 -141 52 -198 -18 -34 -39 -48 -106 -72 -25 -9 -53 -20 -64 -24 -15 -7 -17 -5 -12 12 8 24 -56 217 -80 244 -14 16 -11 18 43 37 78 27 133 28 167 1z m2271 1 c22 -11 45 -20 51 -20 9 0 9 -10 2 -40 -11 -41 -38 -56 -38 -21 0 26 -26 51 -54 51 -43 0 -96 -77 -96 -138 0 -35 26 -72 50 -72 19 0 44 54 38 84 -4 18 3 20 45 11 47 -11 49 -14 29 -40 -11 -13 -25 -45 -32 -70 -7 -25 -17 -45 -21 -45 -5 0 -9 4 -9 9 0 5 -22 11 -49 15 -61 8 -98 36 -111 86 -19 72 19 157 84 190 51 25 62 25 111 0z m-210 -59 c3 -5 1 -12 -5 -16 -5 -3 -10 1 -10 9 0 18 6 21 15 7z m187 -19 c-1 -7 5 -15 13 -18 8 -4 15 -10 15 -16 0 -5 -6 -6 -12 -1 -26 16 -45 12 -56 -12 -7 -14 -20 -25 -29 -24 -11 0 -13 3 -5 6 7 2 17 14 23 26 9 20 9 20 -4 5 -8 -10 -18 -18 -22 -18 -5 0 0 9 9 19 11 12 15 25 10 33 -6 10 -4 10 9 -1 15 -12 17 -12 12 1 -5 11 0 15 17 14 13 -1 22 -7 20 -14z m-54 -99 c-4 -24 -24 -27 -24 -3 0 11 6 20 14 20 7 0 12 -8 10 -17z m-418 -39 c0 -2 -7 -4 -15 -4 -8 0 -15 4 -15 10 0 5 7 7 15 4 8 -4 15 -8 15 -10z m-2016 -189 c-4 -8 -11 -12 -16 -9 -6 4 -5 10 3 15 19 12 19 11 13 -6z"/> <path d="M3320 1540 c8 -5 22 -9 30 -9 10 0 8 3 -5 9 -27 12 -43 12 -25 0z"/> <path d="M2772 1440 c0 -14 2 -19 5 -12 2 6 2 18 0 25 -3 6 -5 1 -5 -13z"/> <path d="M3944 1399 c-4 -7 -3 -9 4 -5 5 3 13 0 15 -6 4 -9 6 -10 6 -1 1 17 -16 25 -25 12z"/> <path d="M4206 1208 c3 -4 12 -8 20 -8 8 0 14 4 14 8 0 4 -9 8 -19 8 -11 0 -17 -4 -15 -8z"/> <path d="M4237 1193 c-20 -8 -37 -22 -37 -30 0 -8 -5 -11 -11 -7 -9 5 -10 -1 -5 -20 5 -20 4 -26 -5 -20 -8 4 -9 3 -5 -5 4 -6 12 -9 18 -5 5 3 23 -9 40 -27 17 -19 25 -26 19 -17 -11 14 -9 16 10 11 15 -4 20 -3 15 5 -4 7 -1 12 9 12 9 0 13 5 9 11 -4 8 0 8 15 0 14 -8 21 -8 21 -1 0 5 -6 10 -12 10 -7 0 -5 5 5 11 9 6 15 15 11 20 -3 6 -12 5 -22 -3 -10 -8 -13 -9 -9 -1 4 6 3 14 -3 18 -5 3 -14 14 -20 25 -8 15 -7 17 11 13 14 -4 17 -8 9 -13 -8 -5 -7 -9 3 -13 10 -4 14 0 13 10 -4 25 -38 32 -79 16z m41 -56 c-5 -37 -67 -33 -68 5 0 4 7 14 16 22 21 22 56 3 52 -27z"/> <path d="M2235 1160 c-3 -5 -1 -10 4 -10 6 0 11 5 11 10 0 6 -2 10 -4 10 -3 0 -8 -4 -11 -10z"/> <path d="M2057 1417 c-3 -8 1 -14 8 -14 7 0 11 6 8 14 -3 7 -6 13 -8 13 -2 0 -5 -6 -8 -13z"/> <path d="M3077 1483 c-4 -3 -7 -21 -7 -40 0 -30 3 -33 30 -33 23 0 31 5 36 25 4 15 1 32 -6 40 -13 16 -42 20 -53 8z"/> <path d="M3062 1320 c-3 -49 -2 -50 26 -50 35 0 52 16 52 50 0 33 -17 50 -49 50 -24 0 -26 -4 -29 -50z m58 4 c0 -2 -7 -4 -15 -4 -8 0 -15 4 -15 10 0 5 7 7 15 4 8 -4 15 -8 15 -10z"/> <path d="M1526 1353 c-6 -14 -5 -15 5 -6 7 7 10 15 7 18 -3 3 -9 -2 -12 -12z"/> <path d="M1335 1246 c-10 -7 -20 -21 -21 -31 -1 -9 1 -14 4 -10 4 4 7 11 7 15 0 5 9 16 20 24 11 9 17 16 14 16 -3 0 -14 -6 -24 -14z"/> <path d="M1347 1224 c-3 -3 -3 -12 0 -20 3 -8 0 -14 -6 -14 -6 0 -11 -7 -11 -16 0 -9 -5 -12 -12 -8 -8 5 -9 0 -4 -17 4 -13 8 -32 7 -42 0 -12 5 -17 14 -13 7 2 16 -1 18 -8 8 -19 55 -8 68 15 5 11 7 25 3 31 -4 6 -3 8 3 5 7 -4 10 3 9 17 0 13 -3 24 -6 24 -17 -1 -30 3 -29 10 3 19 -2 25 -11 12 -6 -10 -10 -11 -10 -2 0 6 -7 12 -16 12 -8 0 -12 5 -9 10 7 11 2 14 -8 4z m57 -70 c10 -26 -5 -45 -33 -42 -31 4 -41 36 -16 54 19 14 41 9 49 -12z"/> <path d="M1948 1316 c-3 -57 -1 -60 38 -48 22 7 22 7 -6 56 l-28 48 -4 -56z"/> <path d="M3637 1388 c-42 -32 -65 -164 -34 -195 39 -40 84 11 102 115 11 68 -26 111 -68 80z m37 -34 c3 -8 2 -13 -3 -10 -14 9 -23 -26 -11 -38 8 -8 9 -5 4 9 -5 15 -4 17 4 10 8 -8 9 -22 1 -50 -16 -63 -17 -65 -34 -59 -29 12 -18 93 20 141 13 16 12 16 19 -3z"/> <path d="M1627 1304 c-5 -6 57 -191 68 -202 2 -3 16 3 30 12 60 39 8 196 -65 196 -15 0 -29 -3 -33 -6z m68 -36 c5 4 5 1 1 -5 -4 -8 -2 -13 6 -14 11 0 11 -2 0 -6 -10 -4 -9 -9 5 -20 10 -8 12 -11 4 -7 -9 4 -12 2 -9 -7 3 -8 11 -13 18 -11 8 2 10 -3 6 -13 -3 -9 -6 -21 -6 -26 0 -5 -4 -9 -10 -9 -5 0 -6 7 -3 17 4 11 3 14 -5 9 -7 -4 -12 -4 -13 1 -3 41 -10 68 -18 76 -16 16 -13 31 2 18 8 -6 18 -7 22 -3z"/> <path d="M1670 2263 c0 -46 -58 -89 -139 -103 l-46 -8 58 -1 c63 -1 106 16 131 51 18 25 21 64 6 73 -5 3 -10 -2 -10 -12z"/> <path d="M2491 2214 c-7 -19 -22 -72 -32 -116 -61 -254 -242 -396 -543 -427 -69 -8 -106 -17 -196 -50 -8 -3 2 -7 22 -9 21 -2 57 5 85 17 26 10 82 22 123 25 284 21 482 185 535 444 8 40 22 83 30 96 14 22 12 56 -4 56 -4 0 -13 -16 -20 -36z"/> <path d="M2854 2213 c-16 -23 -19 -46 -19 -135 0 -62 4 -109 10 -110 6 -2 8 30 7 82 -3 82 3 115 30 152 9 13 9 21 2 28 -8 8 -16 3 -30 -17z"/> <path d="M1982 2159 c-18 -29 -20 -47 -19 -153 1 -67 6 -122 11 -123 6 -2 9 42 8 105 -2 80 1 113 12 132 27 45 29 51 19 61 -7 7 -17 -1 -31 -22z"/> <path d="M3997 2055 c5 -22 7 -73 6 -113 -2 -128 -70 -225 -180 -258 -66 -20 -103 -18 -273 16 -150 30 -271 40 -240 20 8 -5 43 -10 77 -10 34 0 74 -5 88 -10 51 -19 220 -45 290 -44 145 2 237 85 259 236 7 48 -8 160 -25 188 -6 10 -7 1 -2 -25z"/> <path d="M3220 2035 c0 -26 -44 -263 -51 -277 -5 -10 -19 -18 -30 -18 -11 0 -17 -4 -14 -10 9 -14 51 -12 63 3 9 10 21 79 49 270 4 24 2 37 -6 37 -6 0 -11 -2 -11 -5z"/> <path d="M2385 1821 c-3 -5 -2 -12 3 -15 5 -3 9 1 9 9 0 17 -3 19 -12 6z"/> <path d="M2675 1780 c-11 -5 -38 -9 -60 -10 -34 0 -37 -2 -21 -12 12 -6 38 -8 70 -3 56 8 305 7 376 -1 35 -4 41 -3 28 6 -10 6 -77 13 -150 16 -73 2 -153 6 -178 8 -25 2 -54 0 -65 -4z"/> <path d="M2797 1053 c-11 -10 -8 -41 4 -49 6 -3 18 1 27 9 13 13 13 19 2 31 -14 17 -23 20 -33 9z"/> <path d="M2470 1039 c-269 -34 -500 -86 -537 -122 -28 -25 -30 -68 -5 -90 33 -30 82 -16 82 24 0 29 -19 32 -30 5 -11 -31 -25 -33 -40 -6 -22 41 14 68 112 86 54 9 173 -18 324 -75 143 -53 252 -77 306 -67 52 9 90 55 95 113 5 42 1 53 -22 81 -15 18 -40 39 -56 47 -31 16 -121 18 -229 4z m223 -30 c80 -41 75 -164 -7 -185 -36 -9 -57 -2 -78 27 -15 20 -17 30 -9 52 13 34 60 39 68 7 6 -21 24 -23 31 -2 5 17 -36 52 -62 52 -28 0 -66 -42 -66 -72 0 -11 5 -28 10 -39 14 -26 -2 -24 -27 4 -28 31 -34 53 -23 82 11 29 3 33 -16 8 -17 -22 -18 -65 -2 -81 28 -28 -9 -21 -136 27 -75 28 -154 54 -176 57 -22 4 -40 10 -40 13 0 7 111 26 285 50 90 13 223 12 248 0z"/> <path d="M2914 1032 c-44 -28 -74 -74 -74 -115 0 -39 34 -96 70 -115 37 -20 144 -7 247 29 48 17 133 46 188 66 77 27 118 35 175 36 112 2 182 -30 164 -77 -10 -27 -34 -27 -44 0 -11 27 -30 24 -30 -5 0 -40 54 -55 83 -23 24 26 21 65 -6 90 -45 42 -411 116 -637 128 -93 5 -108 3 -136 -14z m416 -46 c80 -13 138 -25 130 -28 -8 -3 -44 -13 -80 -23 -36 -9 -113 -35 -172 -59 -72 -29 -108 -39 -108 -30 0 7 5 16 10 19 26 16 3 95 -28 95 -11 0 -13 -3 -6 -8 24 -15 26 -52 4 -87 -28 -45 -53 -49 -37 -5 25 65 -33 122 -91 89 -30 -16 -43 -59 -19 -59 8 0 17 9 20 21 9 33 58 22 68 -15 6 -22 3 -33 -16 -52 -35 -35 -89 -28 -122 15 -31 40 -9 120 42 150 28 17 225 6 405 -23z"/> <path d="M2796 824 c-4 -14 -20 -33 -36 -42 -17 -9 -30 -19 -30 -23 0 -3 16 -20 35 -39 19 -19 35 -40 35 -47 0 -7 5 -13 10 -13 6 0 10 4 10 10 0 5 16 26 35 46 19 19 35 39 35 42 0 4 -13 15 -30 24 -16 9 -32 28 -36 42 -3 14 -10 26 -14 26 -4 0 -11 -12 -14 -26z m31 -91 c-16 -16 -18 -16 -33 -1 -13 13 -14 19 -3 37 14 21 14 21 34 1 18 -19 18 -21 2 -37z"/> </g> </svg>